<svg width="160" height="29" viewBox="0 0 160 29" fill="none" xmlns="http://www.w3.org/2000/svg">
<path d="M7.51562 10.8876C7.51562 8.84638 9.16913 7.19287 11.2103 7.19287C13.2515 7.19287 14.905 8.84638 14.905 10.8876C14.905 12.9288 13.2515 14.5823 11.2103 14.5823C9.16913 14.5823 7.51562 12.9288 7.51562 10.8876Z" fill="white"/>
<path d="M5.25423 22.2798H1.18066C0.528655 22.2798 0 21.7512 0 21.0992V1.18066C0 0.528653 0.528655 0 1.18066 0H5.25423C5.90624 0 6.43489 0.528653 6.43489 1.18066V21.0992C6.43489 21.7512 5.90624 22.2798 5.25423 22.2798Z" fill="white"/>
<path d="M7.6858 16.242V21.0997C7.6858 21.7517 8.21445 22.2804 8.86646 22.2804H14.5906C15.692 22.2804 16.1942 20.9088 15.3542 20.198L9.63007 15.3403C8.86058 14.6883 7.68286 15.2346 7.68286 16.242" fill="white"/>
<path d="M25.9218 22.6909C24.4152 22.6909 23.0524 22.3473 21.8336 21.663C20.6147 20.9758 19.6455 20.0536 18.9319 18.8905C18.2182 17.7275 17.8599 16.4323 17.8599 15.002C17.8599 13.5717 18.2182 12.253 18.9319 11.0987C19.6455 9.94745 20.6147 9.02525 21.8336 8.34093C23.0524 7.65368 24.4152 7.31006 25.9218 7.31006C27.4285 7.31006 28.8147 7.65368 30.0248 8.34093C31.2348 9.02818 32.1981 9.94745 32.9118 11.0987C33.6255 12.253 33.9838 13.554 33.9838 15.002C33.9838 16.4499 33.6255 17.7275 32.9118 18.8905C32.1981 20.0536 31.2348 20.9787 30.0248 21.663C28.8147 22.3503 27.4461 22.6909 25.9218 22.6909ZM28.3243 12.4409C27.6958 11.7654 26.894 11.4277 25.9218 11.4277C24.9497 11.4277 24.1479 11.7654 23.5194 12.4409C22.8909 13.1164 22.5766 13.9711 22.5766 14.999C22.5766 16.027 22.8909 16.8816 23.5194 17.5571C24.1479 18.2326 24.9497 18.5733 25.9218 18.5733C26.894 18.5733 27.6928 18.2356 28.3243 17.5571C28.9528 16.8816 29.267 16.027 29.267 14.999C29.267 13.9711 28.9528 13.1164 28.3243 12.4409Z" fill="white"/>
<path d="M36.5564 12.9432C36.5564 11.7801 36.8295 10.7816 37.3699 9.94158C37.9133 9.10454 38.6739 8.45548 39.6578 7.99731C40.6388 7.53914 41.7783 7.31006 43.0735 7.31006C44.2542 7.31006 45.288 7.50096 46.175 7.88277C47.0619 8.26457 47.7697 8.79616 48.3043 9.48341C48.8564 8.77854 49.5672 8.24108 50.4336 7.86808C51.3 7.49802 52.3162 7.31006 53.4792 7.31006C54.7744 7.31006 55.9081 7.53914 56.8802 7.99731C57.8523 8.45548 58.6101 9.10161 59.1534 9.94158C59.6967 10.7816 59.9669 11.7801 59.9669 12.9432V22.2915H55.3647V14.2589C55.3647 12.4468 54.6011 11.5422 53.0768 11.5422C52.2369 11.5422 51.6083 11.8095 51.1913 12.344C50.7713 12.8785 50.5628 13.651 50.5628 14.6613V22.2945H45.9606V14.6613C45.9606 12.5848 45.1323 11.5452 43.473 11.5452C41.9281 11.5452 41.1586 12.4497 41.1586 14.2619V22.2945H36.5564V12.9461V12.9432Z" fill="white"/>
<path d="M62.7717 15.5159C62.7717 13.7831 63.0919 12.3058 63.7292 11.0841C64.3665 9.86522 65.274 8.93126 66.4459 8.28219C67.6177 7.63312 69.004 7.31006 70.6046 7.31006C72.2053 7.31006 73.6591 7.639 74.8485 8.29688C76.0409 8.95476 76.9631 9.85934 77.621 11.0136C78.2789 12.1678 78.6078 13.4953 78.6078 15.002C78.6078 16.5086 78.2936 17.7833 77.6651 18.9463C77.0366 20.1094 76.1937 21.0228 75.1363 21.6894C74.079 22.3561 72.8808 22.6909 71.5474 22.6909C70.6898 22.6909 69.8997 22.547 69.1743 22.2622C68.4489 21.9773 67.8497 21.5955 67.3739 21.1197V28.0098H62.7717V15.5159ZM72.9777 17.5601C73.5886 16.9227 73.894 16.0769 73.894 15.0313C73.894 13.9858 73.5886 13.1399 72.9777 12.5026C72.3668 11.8653 71.5767 11.5452 70.6046 11.5452C69.6325 11.5452 68.8424 11.8653 68.2315 12.5026C67.6207 13.1429 67.3181 13.9858 67.3181 15.0313C67.3181 16.0769 67.6236 16.9227 68.2315 17.5601C68.8424 18.2003 69.6325 18.5175 70.6046 18.5175C71.5767 18.5175 72.3668 18.1974 72.9777 17.5601Z" fill="white"/>
<path d="M94.6761 22.2063C94.4646 22.2621 94.1092 22.3209 93.6041 22.3767C93.0989 22.4325 92.5174 22.4854 91.8595 22.5353C91.2016 22.5823 90.5261 22.6205 89.8301 22.6498C89.134 22.6792 88.4908 22.6939 87.9005 22.6939C85.4599 22.6939 83.6125 22.3033 82.3555 21.522C81.0985 20.7408 80.47 19.4838 80.47 17.748C80.47 16.1679 81.0221 14.9785 82.1264 14.1884C83.2307 13.3984 85.0223 13.0019 87.5011 13.0019C88.6641 13.0019 89.5129 13.0401 90.0445 13.1164C90.0445 11.6861 88.8726 10.9724 86.5289 10.9724C85.7477 10.9724 85.0076 11.0488 84.3145 11.2015C83.6184 11.3543 83.0721 11.5628 82.6698 11.83C82.4025 11.601 82.1646 11.2926 81.9561 10.902C81.7446 10.5113 81.6418 10.1149 81.6418 9.71543C81.6418 8.97237 82.0618 8.38498 82.8988 7.95618C83.7388 7.52739 85.0135 7.31299 86.7286 7.31299C89.3396 7.31299 91.3162 7.8387 92.6613 8.88426C94.0035 9.93276 94.6761 11.4952 94.6761 13.5717V22.2063ZM87.8711 19.4338C88.3469 19.4338 88.7992 19.4192 89.228 19.3898C89.6568 19.3604 89.9387 19.3281 90.0709 19.2899V16.2326C89.7273 16.1944 89.3455 16.1621 88.9284 16.1327C88.5084 16.1033 88.1384 16.0886 87.8124 16.0886C86.8021 16.0886 86.0884 16.2414 85.6684 16.5468C85.2484 16.8523 85.0399 17.281 85.0399 17.8332C85.0399 18.8993 85.9827 19.4338 87.8711 19.4338Z" fill="white"/>
<path d="M97.8186 13.1429C97.8186 11.2955 98.3766 9.85934 99.4927 8.84022C100.609 7.82109 102.165 7.31006 104.165 7.31006C105.575 7.31006 106.694 7.54502 107.525 8.00906C108.354 8.47603 108.768 9.08105 108.768 9.8241C108.768 10.2059 108.662 10.6053 108.453 11.0253C108.245 11.4453 107.995 11.7889 107.71 12.0533C107.349 11.8624 106.92 11.7096 106.424 11.5951C105.928 11.4806 105.461 11.4247 105.023 11.4247C103.287 11.4247 102.421 12.3293 102.421 14.1414V22.2886H97.8186V13.1399V13.1429Z" fill="white"/>
<path d="M117.144 22.691C115.62 22.691 114.281 22.3679 113.126 21.7188C111.972 21.0697 111.073 20.171 110.424 19.0168C109.775 17.8626 109.452 16.5263 109.452 14.999C109.452 13.4718 109.79 12.1649 110.468 11.0106C111.144 9.85642 112.075 8.95183 113.256 8.29395C114.436 7.63607 115.781 7.30713 117.285 7.30713C118.542 7.30713 119.667 7.5274 120.66 7.96501C121.649 8.40262 122.431 9.0047 123.003 9.76537C123.576 10.529 123.861 11.3954 123.861 12.3675C123.861 13.9505 123.235 15.1018 121.987 15.8273C120.739 16.5527 118.724 16.9139 115.94 16.9139C115.579 16.9139 115.273 16.911 115.024 16.8993C114.777 16.8904 114.548 16.8758 114.336 16.8552C114.451 17.4455 114.85 17.9243 115.538 18.2855C116.225 18.6468 117.091 18.8288 118.14 18.8288C118.521 18.8288 118.959 18.7848 119.455 18.6996C119.952 18.6144 120.422 18.4999 120.871 18.356C121.317 18.2121 121.646 18.074 121.858 17.9419L123.459 21.1432C123.021 21.4281 122.442 21.6924 121.729 21.9303C121.015 22.1682 120.257 22.3532 119.455 22.4883C118.654 22.6205 117.884 22.688 117.141 22.688L117.144 22.691ZM117.259 10.855C116.383 10.855 115.643 11.1457 115.044 11.7273C114.445 12.3088 114.142 13.046 114.142 13.9417C114.295 13.9623 114.451 13.9711 114.615 13.9711H115.059C116.621 13.9711 117.74 13.8331 118.419 13.557C119.094 13.2809 119.435 12.8756 119.435 12.3411C119.435 11.9035 119.235 11.5452 118.836 11.2691C118.436 10.993 117.911 10.855 117.264 10.855H117.259Z" fill="white"/>
<path d="M127.05 22.1625C126.736 21.81 126.577 21.4135 126.577 20.9759C126.577 20.5383 126.733 20.1418 127.05 19.7894C127.364 19.437 127.761 19.2607 128.237 19.2607C128.713 19.2607 129.133 19.437 129.438 19.7894C129.743 20.1418 129.896 20.5383 129.896 20.9759C129.896 21.4135 129.743 21.81 129.438 22.1625C129.133 22.5149 128.733 22.6911 128.237 22.6911C127.74 22.6911 127.364 22.5149 127.05 22.1625Z" fill="white"/>
<path d="M133.726 2.19381C133.726 1.54475 134.069 1.22168 134.756 1.22168C135.1 1.22168 135.385 1.28923 135.614 1.42139V10.2264C136.149 9.44518 136.895 8.84017 137.858 8.41137C138.821 7.98257 139.902 7.76817 141.103 7.76817C142.933 7.76817 144.375 8.25865 145.435 9.23959C146.493 10.2205 147.021 11.5686 147.021 13.2838V22.2885H145.136V14.2559C145.136 12.5584 144.783 11.3248 144.078 10.5524C143.374 9.78 142.307 9.39525 140.877 9.39525C139.218 9.39525 137.928 9.85342 137.003 10.7668C136.078 11.6802 135.617 12.902 135.617 14.4263V22.2885H133.731V2.19381H133.726Z" fill="white"/>
<path d="M150.563 12.9724C150.563 11.2954 151.045 10.009 152.008 9.11319C152.972 8.21741 154.434 7.771 156.396 7.771C157.462 7.771 158.332 7.90022 158.998 8.15574C159.665 8.41419 160 8.76075 160 9.19836C160 9.54199 159.847 9.83862 159.542 10.0853C158.702 9.66534 157.712 9.45681 156.57 9.45681C155.122 9.45681 154.073 9.80631 153.424 10.4994C152.775 11.1955 152.452 12.3145 152.452 13.8593V22.2914H150.566V12.9724H150.563Z" fill="white"/>
</svg>
